<?xml version="1.0" standalone="no"?>
<!DOCTYPE svg PUBLIC "-//W3C//DTD SVG 20010904//EN"
 "http://www.w3.org/TR/2001/REC-SVG-20010904/DTD/svg10.dtd">
<svg version="1.0" xmlns="http://www.w3.org/2000/svg"
 width="500.000000pt" height="500.000000pt" viewBox="0 0 500.000000 500.000000"
 preserveAspectRatio="xMidYMid meet">

<g transform="translate(0.000000,500.000000) scale(0.100000,-0.100000)"
fill="#000000" stroke="none">
<path d="M1996 3724 c-129 -25 -285 -117 -371 -216 -78 -91 -136 -223 -153
-346 -12 -86 1 -220 29 -304 83 -249 348 -448 597 -448 61 0 68 -2 190 -77
170 -102 340 -190 386 -198 46 -9 99 1 416 80 445 111 621 173 648 228 30 62
-40 109 -278 185 -69 22 -165 53 -213 69 l-88 28 -5 170 c-5 205 -21 448 -35
518 -16 89 -11 87 -261 87 -135 0 -218 4 -218 10 0 20 -138 123 -215 160 -136
66 -280 84 -429 54z m305 -115 c82 -23 219 -110 192 -121 -26 -10 -141 -10
-147 1 -7 11 -122 38 -197 46 -74 8 -181 -10 -244 -41 -99 -50 -183 -159 -221
-289 -36 -124 -10 -315 44 -323 30 -5 37 20 19 66 -48 122 -12 296 87 417 65
79 208 128 321 110 l50 -8 -74 -13 c-100 -17 -111 -30 -118 -130 -10 -143 28
-595 63 -743 8 -35 13 -65 11 -67 -9 -9 -147 30 -205 58 -91 44 -207 159 -250
248 -128 264 -50 559 189 719 143 96 308 120 480 70z m759 -184 c18 -48 32
-259 34 -499 l1 -240 -40 -8 c-103 -22 -526 -100 -665 -123 -180 -29 -204 -34
-198 -41 9 -8 816 134 880 156 31 10 103 -8 358 -92 179 -58 260 -92 260 -108
0 -24 -185 -89 -485 -169 -210 -56 -454 -113 -491 -114 -38 -1 -195 73 -363
173 -132 77 -171 107 -174 131 -2 9 -10 24 -19 32 -40 41 -88 433 -88 724 0
117 2 133 18 142 41 22 497 54 830 59 l132 2 10 -25z"/>
<path d="M2505 3379 c-226 -13 -338 -28 -352 -46 -23 -30 -11 -319 23 -556 21
-152 32 -181 68 -185 38 -5 208 19 456 64 289 52 328 62 342 87 18 34 -6 572
-28 630 -5 15 -26 17 -188 16 -99 -1 -244 -6 -321 -10z m496 -50 c10 -46 29
-367 29 -485 0 -89 -1 -95 -23 -103 -56 -22 -577 -115 -709 -127 l-66 -7 -11
39 c-28 98 -66 488 -59 614 l3 64 35 7 c93 19 703 50 765 39 24 -5 31 -12 36
-41z"/>
<path d="M3010 2439 c-47 -11 -89 -21 -94 -22 -5 -2 29 -19 75 -39 l85 -37
102 26 c56 14 102 29 102 33 0 10 -148 60 -170 59 -8 0 -53 -10 -100 -20z"/>
<path d="M1437 2592 c-18 -19 -22 -50 -9 -68 21 -32 215 -194 232 -194 26 0
60 34 60 60 0 23 -26 52 -136 149 -86 75 -117 86 -147 53z"/>
<path d="M1390 2361 c-23 -6 -153 -140 -402 -414 -98 -107 -108 -122 -108
-157 0 -74 69 -123 135 -96 17 7 111 100 211 207 314 338 294 314 294 360 0
53 -14 78 -55 95 -37 15 -38 15 -75 5z"/>
<path d="M1507 2033 c-4 -3 -7 -109 -7 -235 l0 -228 50 0 50 0 0 100 0 100 95
0 95 0 0 -100 0 -100 50 0 50 0 0 235 0 235 -50 0 -49 0 -3 -92 -3 -93 -90 0
-90 0 -3 93 -3 92 -43 0 c-23 0 -46 -3 -49 -7z"/>
<path d="M2007 2033 c-4 -3 -7 -109 -7 -235 l0 -228 50 0 50 0 0 235 0 235
-43 0 c-24 0 -47 -3 -50 -7z"/>
<path d="M2220 1805 l0 -235 50 0 50 0 0 90 0 90 28 0 c23 -1 34 -13 82 -90
l55 -90 53 0 c40 0 51 3 46 13 -4 6 -34 51 -65 99 l-58 86 39 40 c36 35 40 45
40 88 0 105 -63 144 -232 144 l-88 0 0 -235z m206 134 c8 -6 14 -26 14 -45 0
-41 -29 -64 -82 -64 l-38 0 0 66 0 67 46 -7 c26 -3 53 -11 60 -17z"/>
<path d="M2657 2033 c-4 -3 -7 -109 -7 -235 l0 -228 135 0 135 0 0 40 0 40
-85 0 -85 0 0 60 0 60 80 0 80 0 0 40 0 39 -77 3 -78 3 0 50 0 50 83 3 82 3 0
39 0 40 -128 0 c-71 0 -132 -3 -135 -7z"/>
<path d="M3192 1851 c3 -163 5 -182 24 -207 43 -59 68 -69 164 -69 84 0 90 2
127 31 54 44 62 75 62 262 l1 162 -45 0 -45 0 -1 -147 c0 -182 -9 -213 -64
-232 -35 -12 -45 -11 -77 2 -49 21 -58 55 -58 235 l0 142 -46 0 -46 0 4 -179z"/>
<path d="M3690 1800 l0 -230 45 0 45 0 0 84 0 83 63 5 c114 9 161 55 160 154
-1 103 -49 134 -207 134 l-106 0 0 -230z m200 140 c12 -12 20 -33 20 -55 0
-42 -28 -64 -86 -68 l-39 -2 -3 73 -3 72 46 0 c32 0 51 -6 65 -20z"/>
<path d="M4086 1893 c3 -76 7 -144 10 -150 2 -7 19 -13 37 -13 l34 0 6 107 c4
58 7 126 7 150 l0 43 -50 0 -51 0 7 -137z"/>
<path d="M4098 1659 c-18 -10 -24 -55 -10 -75 12 -18 41 -24 67 -14 20 8 25
16 25 44 0 48 -40 70 -82 45z"/>
</g>
</svg>
